# xmcd CD database file
#
# Track frame offsets:
#	150
#	21429
#	43218
#	78695
#	105116
#	127627
#	147192
#	171534
#	192424
#	214366
#
# Disc length: 3127 seconds
#
# Revision: 0
# Processed by: cddbd v1.5.2PL0 Copyright (c) Steve Scherf et al.
# Submitted via: CDex 1.51
#
DISCID=8e0c350a
DTITLE=Joe Louis Walker and Otis Grand - Guitar Brothers
DYEAR=2001
DGENRE=Blues
TTITLE0=I`m Getting Drunk
TTITLE1=Regal Blues
TTITLE2=Better Off Alone
TTITLE3=Friends
TTITLE4=I Like It This Way
TTITLE5=Imitation Ice Cream Blues
TTITLE6=Snake Bit
TTITLE7=Rude Women
TTITLE8=Bliss Street Blues
TTITLE9=I`m Gonna Love You
EXTD=YEAR: 2001
EXTT0=
EXTT1=
EXTT2=
EXTT3=
EXTT4=
EXTT5=
EXTT6=
EXTT7=
EXTT8=
EXTT9=
PLAYORDER=
